<svg xmlns="http://www.w3.org/2000/svg" viewBox="0 0 1180 590" width="1180" height="590" font-family="Segoe UI, Helvetica, Arial, sans-serif" role="img" aria-label="Hub and spoke topology with a shared platform hub and domain spokes"><title>Hub and spoke topology with a shared platform hub and domain spokes</title><defs><linearGradient id="g" x1="0" y1="0" x2="1" y2="1"><stop offset="0%" stop-color="#0b5cad"/><stop offset="100%" stop-color="#4a2f8f"/></linearGradient></defs><rect width="1180" height="590" fill="#ffffff"/><text x="40" y="46" font-size="22" font-weight="700" fill="#10243e" text-anchor="start">Hub and spoke platform topology</text><rect x="480" y="200" width="260" height="130" rx="10" fill="url(#g)" stroke="#0b5cad" stroke-width="2"/><text x="610.0" y="261.0" text-anchor="middle" font-size="17" font-weight="600" fill="#ffffff">Platform hub</text><text x="610.0" y="281.0" text-anchor="middle" font-size="12" fill="#44546a">Shared control plane, gateway, registry</text><rect x="80" y="90" width="280" height="90" rx="10" fill="#eef3fb" stroke="#0b5cad" stroke-width="2"/><text x="220.0" y="131.0" text-anchor="middle" font-size="14" font-weight="600" fill="#10243e">Domain spoke: Finance</text><text x="220.0" y="151.0" text-anchor="middle" font-size="12" fill="#44546a">Agents, tools, data products</text><rect x="860" y="90" width="280" height="90" rx="10" fill="#eef3fb" stroke="#0b5cad" stroke-width="2"/><text x="1000.0" y="131.0" text-anchor="middle" font-size="14" font-weight="600" fill="#10243e">Domain spoke: Service</text><text x="1000.0" y="151.0" text-anchor="middle" font-size="12" fill="#44546a">Agents, tools, data products</text><rect x="80" y="400" width="280" height="90" rx="10" fill="#eef3fb" stroke="#0b5cad" stroke-width="2"/><text x="220.0" y="441.0" text-anchor="middle" font-size="14" font-weight="600" fill="#10243e">Domain spoke: Supply chain</text><text x="220.0" y="461.0" text-anchor="middle" font-size="12" fill="#44546a">Agents, tools, data products</text><rect x="860" y="400" width="280" height="90" rx="10" fill="#eef3fb" stroke="#0b5cad" stroke-width="2"/><text x="1000.0" y="441.0" text-anchor="middle" font-size="14" font-weight="600" fill="#10243e">Domain spoke: Marketing</text><text x="1000.0" y="461.0" text-anchor="middle" font-size="12" fill="#44546a">Agents, tools, data products</text><defs><marker id="a360150480230" markerWidth="8" markerHeight="8" refX="7" refY="3" orient="auto"><path d="M0,0 L8,3 L0,6 z" fill="#0b5cad"/></marker></defs><line x1="360" y1="150" x2="480" y2="230" stroke="#0b5cad" stroke-width="2" marker-end="url(#a360150480230)"/><defs><marker id="a860150745230" markerWidth="8" markerHeight="8" refX="7" refY="3" orient="auto"><path d="M0,0 L8,3 L0,6 z" fill="#0b5cad"/></marker></defs><line x1="860" y1="150" x2="745" y2="230" stroke="#0b5cad" stroke-width="2" marker-end="url(#a860150745230)"/><defs><marker id="a360440480320" markerWidth="8" markerHeight="8" refX="7" refY="3" orient="auto"><path d="M0,0 L8,3 L0,6 z" fill="#0b5cad"/></marker></defs><line x1="360" y1="440" x2="480" y2="320" stroke="#0b5cad" stroke-width="2" marker-end="url(#a360440480320)"/><defs><marker id="a860440745320" markerWidth="8" markerHeight="8" refX="7" refY="3" orient="auto"><path d="M0,0 L8,3 L0,6 z" fill="#0b5cad"/></marker></defs><line x1="860" y1="440" x2="745" y2="320" stroke="#0b5cad" stroke-width="2" marker-end="url(#a860440745320)"/><text x="40" y="560" font-size="13" fill="#44546a" text-anchor="start" font-weight="400">The hub owns shared standards and controls; spokes own business logic and delivery speed.</text></svg>